<?xml version="1.0" encoding="UTF-8"?>
<svg id="svg2430" xmlns="http://www.w3.org/2000/svg" version="1.1" xmlns:svg="http://www.w3.org/2000/svg" viewBox="0 0 682.67 682.67">
  <!-- Generator: Adobe Illustrator 30.1.0, SVG Export Plug-In . SVG Version: 2.1.1 Build 136)  -->
  <defs>
    <style>
      .st0 {
        fill: #fff;
      }
    </style>
  </defs>
  <g id="path2448">
    <path class="st0" d="M254.64,554.89c-1.71,0-3.42-.35-5.03-1.09-5.48-2.52-8.08-8.76-6.12-14.69l56.71-171.27h-71.15c-4.74,0-8.93-2.69-10.8-6.95-1.87-4.25-1.1-9.33,1.99-13.08l174.94-212.58c3.71-4.51,9.88-6.08,14.98-3.83,5.1,2.25,7.84,7.76,6.65,13.38l-27.25,128.4h45.13c4.55,0,8.61,2.49,10.58,6.48,1.97,3.99,1.54,8.86-1.12,12.69l-178.74,256.82c-2.54,3.66-6.64,5.71-10.76,5.71ZM255.64,342.97h62.24c3.89,0,7.46,1.82,9.65,4.92s2.75,7.11,1.51,10.86l-35.69,107.79,117.25-168.47h-36.91c-3.64,0-7.02-1.6-9.23-4.37-2.22-2.77-3.06-6.44-2.29-10.03l20.06-94.51-126.58,153.81Z"/>
  </g>
  <g>
    <path class="st0" d="M382.26,124.85c.46-.56.95-1.11,1.45-1.63.26-.28.43-.63.45-1.01l1.08-20.61c.04-.83-.59-1.5-1.42-1.5h-62.86c-.83,0-1.54.67-1.58,1.5l-2.72,51.89c-.04.71-.57,1.32-1.27,1.46-56.27,11.59-97.23,51.93-100.04,105.59-1.07,20.46,3.13,36.84,11.41,50.27.52.85,1.76.87,2.42.07l153.09-186.02Z"/>
    <path class="st0" d="M412.54,248.64s0,.01.01.02c.52.65,1.5.7,2.16.12l48.47-43c.61-.54.72-1.46.24-2.07-9.84-12.56-21.06-22.6-33.34-30.39-.88-.56-2.1,0-2.32,1.05l-15.5,73.05c-.09.44,0,.88.28,1.21Z"/>
    <path class="st0" d="M257.13,441.85c-5.33-4.69-10.4-9.94-15.13-15.74-.52-.64-1.48-.7-2.14-.13l-47.9,41.94c-.6.52-.73,1.41-.29,2.02,11.77,16.64,26.12,29.5,42.19,39.05.82.49,1.93.04,2.24-.91l21.42-64.7c.19-.56.03-1.16-.4-1.54Z"/>
    <path class="st0" d="M427.79,344.91l-38.43,55.22c-.34.49-.37,1.11-.09,1.6,3.23,5.74,4.92,12.45,4.51,20.39-1.29,24.67-21.73,43.27-52.15,47.5-.43.06-.83.3-1.09.67l-49.61,71.29c-.17.24-.27.52-.28.81l-2.03,38.68c-.04.83.59,1.5,1.42,1.5h62.3c.83,0,1.54-.67,1.58-1.5l2.72-51.88c.04-.71.58-1.32,1.28-1.46,61.28-12.15,100.18-54.73,102.99-108.42,1.84-35.2-10.34-58.27-30.92-74.78-.67-.54-1.69-.35-2.2.38Z"/>
  </g>
</svg>