<?xml version="1.0" encoding="UTF-8"?>
<svg id="Layer_1" xmlns="http://www.w3.org/2000/svg" version="1.1" viewBox="0 0 640 640">
  <!-- Generator: Adobe Illustrator 30.2.1, SVG Export Plug-In . SVG Version: 2.1.1 Build 1)  -->
  <defs>
    <style>
      .st0 {
        fill: #fff;
      }
    </style>
  </defs>
  <path class="st0" d="M375.59,161.74l-.86,70.38c-35.09,13.74-62.44,34.37-87.52,65.48l.03-141.69c.01-59.34,48.6-111.35,108.74-111.37l231.85-.08c.84,43.23-32.34,85.13-77.41,85.65l-149.75,1.72c-16.72.19-25.5,12.43-25.09,29.9Z"/>
  <path class="st0" d="M374.81,416.82l.35,85.16c.2,46.94-38.99,86.47-88.12,81.14l1.13-191.01c.42-71.68,66.86-131.81,137.47-135.62,39.94-2.15,75.75-.61,114.81-.57.6,48.19-38.82,87.46-87.3,86.68-21.8-.35-41.41,1.46-56.9,16.08-16.78,15.83-21.55,33.25-21.45,58.14Z"/>
  <path class="st0" d="M241.82,518.76c-2.18,42.69-48.33,68.39-84.89,64.28l.78-335.87c.1-43.2,43.55-74.34,86.56-71.48-1.99,114.49,3.42,228.2-2.45,343.08Z"/>
  <path class="st0" d="M26.8,582.97c-1.48-32.66-2.1-61.98-1.65-93.07l1.99-136.99c.65-44.78,43.56-75.08,87.08-73.24l.11,224.76c.02,47.14-42.6,83.27-87.53,78.53Z"/>
</svg>